<?xml version="1.0" encoding="UTF-8"?>
<svg xmlns="http://www.w3.org/2000/svg" xmlns:xlink="http://www.w3.org/1999/xlink" width="1440pt" height="809.999993pt" viewBox="0 0 1440 809.999993" version="1.2">
<defs>
<clipPath id="clip1">
  <path d="M 249.429688 265.636719 L 739.179688 265.636719 L 739.179688 563.386719 L 249.429688 563.386719 Z M 249.429688 265.636719 "/>
</clipPath>
<clipPath id="clip2">
  <path d="M 0 525.441406 L 395.789062 525.441406 L 395.789062 809.386719 L 0 809.386719 Z M 0 525.441406 "/>
</clipPath>
<clipPath id="clip3">
  <path d="M 378.714844 312.230469 L 548.964844 312.230469 L 548.964844 482.480469 L 378.714844 482.480469 Z M 378.714844 312.230469 "/>
</clipPath>
</defs>
<g id="surface1">
<path style=" stroke:none;fill-rule:nonzero;fill:rgb(100%,100%,100%);fill-opacity:1;" d="M 260.082031 559.003906 C 256.460938 556.207031 256.53125 552.683594 260.261719 550.140625 C 264.117188 547.511719 268.96875 547.5625 272.472656 550.269531 C 276.09375 553.070312 276.023438 556.589844 272.292969 559.132812 C 268.4375 561.761719 263.585938 561.710938 260.082031 559.003906 Z M 286.515625 547.585938 C 276.84375 543.777344 277 532.695312 286.777344 529.027344 C 294.148438 526.261719 303.101562 528.121094 306.699219 533.171875 C 313.550781 542.785156 299.605469 552.742188 286.515625 547.585938 Z M 324.054688 530.175781 C 311.382812 525.261719 306.332031 514.054688 312.820312 505.246094 C 319.59375 496.050781 335.03125 492.382812 347.167969 497.09375 C 359.839844 502.007812 364.890625 513.214844 358.402344 522.023438 C 351.628906 531.21875 336.191406 534.886719 324.054688 530.175781 Z M 515.511719 513.125 C 498.972656 510.523438 488.410156 507.339844 475.761719 501.15625 L 468.898438 497.800781 L 457.144531 502.007812 C 450.679688 504.324219 441.34375 506.832031 436.402344 507.582031 C 390.148438 514.585938 344.859375 494.21875 333.042969 461.101562 C 331.4375 456.59375 330.128906 454.566406 328.96875 454.789062 C 328.03125 454.972656 322.640625 455.339844 316.992188 455.605469 C 298.285156 456.484375 283.039062 452.113281 269.878906 442.097656 C 262.039062 436.132812 258.636719 431.902344 255.503906 424.238281 C 251.289062 413.921875 253.875 399.421875 261.558594 390.289062 C 266.421875 384.507812 277.347656 377.117188 285.324219 374.210938 L 292.714844 371.519531 L 294.320312 365.464844 C 300.390625 342.542969 329.003906 325.390625 361.167969 325.390625 L 368.628906 325.390625 L 369.441406 319.726562 C 372.640625 297.53125 395.742188 277.226562 426.769531 269.347656 C 433.859375 267.546875 437.722656 267.230469 452.449219 267.230469 C 467.175781 267.230469 471.039062 267.546875 478.128906 269.347656 C 501.574219 275.300781 520.234375 287.808594 529.652344 303.882812 C 531.671875 307.328125 533.96875 309.933594 534.898438 309.824219 C 535.804688 309.71875 540.015625 308.722656 544.253906 307.605469 C 554.742188 304.84375 573.355469 304.191406 584.996094 306.175781 C 607.492188 310.015625 627.527344 321.453125 636.980469 335.851562 C 639.941406 340.359375 640.988281 341.195312 643.117188 340.746094 C 648.851562 339.539062 666.707031 339.226562 673.933594 340.207031 C 686.320312 341.886719 699.308594 346.917969 709.261719 353.894531 C 737.925781 373.976562 738.625 405.324219 710.878906 426.183594 C 696.179688 437.234375 677.71875 442.472656 656.429688 441.632812 L 645.339844 441.191406 L 643.800781 448.128906 C 635.214844 486.75 589.714844 514.730469 535.90625 514.476562 C 529.199219 514.441406 520.019531 513.835938 515.507812 513.125 Z M 515.511719 513.125 "/>
<g clip-path="url(#clip1)" clip-rule="nonzero">
<path style="fill:none;stroke-width:6;stroke-linecap:butt;stroke-linejoin:miter;stroke:rgb(0%,0%,0%);stroke-opacity:1;stroke-miterlimit:4;" d="M 73.817526 576.870559 C 67.007155 571.609222 67.139395 564.981114 74.155473 560.197413 C 81.406646 555.252051 90.531221 555.347578 97.121192 560.439905 C 103.931563 565.70859 103.799323 572.329349 96.783244 577.11305 C 89.532072 582.058413 80.407497 581.962886 73.817526 576.870559 Z M 123.532502 555.391667 C 105.342125 548.227138 105.635992 527.380195 124.02473 520.480202 C 137.887913 515.277652 154.726501 518.775412 161.492792 528.27668 C 174.378867 546.360686 148.151223 565.091338 123.532502 555.391667 Z M 194.134086 522.640583 C 170.30146 513.396504 160.802204 492.314417 173.005038 475.744147 C 185.744179 458.446401 214.778254 451.546408 237.604385 460.40838 C 261.437011 469.65246 270.936267 490.734546 258.733433 507.304817 C 245.994292 524.602562 216.960217 531.502555 194.134086 522.640583 Z M 554.216858 490.565537 C 523.111019 485.671612 503.2456 479.682801 479.457053 468.050545 L 466.548939 461.738411 L 444.442782 469.65246 C 432.284028 474.009963 414.725466 478.72753 405.431917 480.138391 C 318.439893 493.313777 233.262498 455.000079 211.038794 392.701742 C 208.019309 384.221878 205.558172 380.408144 203.376208 380.826994 C 201.613005 381.172361 191.474588 381.863095 180.851291 382.362775 C 145.668046 384.016128 116.993958 375.793452 92.242997 356.952578 C 77.498212 345.731823 71.099255 337.773684 65.207219 323.356447 C 57.280152 303.949758 62.143654 276.673109 76.594571 259.492935 C 85.741186 248.617547 106.289847 234.714686 121.291765 229.247599 L 135.191682 224.184665 L 138.211167 212.794901 C 149.627906 169.675457 203.442328 137.409356 263.934882 137.409356 L 277.967039 137.409356 L 279.495148 126.754416 C 285.512078 85.001743 328.960337 46.805617 387.315007 31.984227 C 400.649229 28.596691 407.915095 28.001484 435.612074 28.001484 C 463.309053 28.001484 470.574919 28.596691 483.909141 31.984227 C 528.003907 43.182937 563.098992 66.711986 580.811835 96.949974 C 584.610068 103.431117 588.929915 108.33239 590.678425 108.126639 C 592.382854 107.928237 600.302574 106.054437 608.273721 103.952842 C 627.999553 98.75764 663.006478 97.530484 684.899581 101.263388 C 727.209105 108.486703 764.890221 130.002335 782.669184 157.08793 C 788.237966 165.567793 790.206876 167.140316 794.210816 166.295269 C 804.995741 164.024664 838.57741 163.436805 852.168766 165.281212 C 875.465085 168.440953 899.892792 177.90548 918.61213 191.029428 C 972.522059 228.806705 973.837115 287.776292 921.653655 327.015868 C 894.008102 347.804025 859.287698 357.658008 819.248298 356.078138 L 798.391077 355.247787 L 795.496485 368.298253 C 779.348485 440.950253 693.774369 493.585662 592.573868 493.108026 C 579.95962 493.041892 562.694925 491.902916 554.209511 490.565537 Z M 554.216858 490.565537 " transform="matrix(0.531703,0,0,0.53159,220.833043,252.345154)"/>
</g>
<g clip-path="url(#clip2)" clip-rule="nonzero">
<path style=" stroke:none;fill-rule:nonzero;fill:rgb(0%,0%,0%);fill-opacity:1;" d="M 0.71875 809.136719 C 0.773438 808.988281 1.101562 808.734375 1.441406 808.574219 C 1.78125 808.410156 2.785156 807.628906 3.667969 806.832031 C 4.550781 806.035156 5.691406 805.15625 6.203125 804.875 C 40.734375 767.0625 83.089844 781.289062 124.738281 748.710938 C 126.75 747.148438 127.402344 746.800781 129.339844 746.261719 L 131.175781 745.746094 L 131.265625 739.910156 C 131.316406 736.699219 131.273438 732.125 131.164062 729.742188 L 130.96875 725.410156 L 131.5 722.980469 C 131.792969 721.644531 132.320312 719.746094 132.675781 718.761719 C 133.035156 717.769531 133.398438 716.289062 133.496094 715.429688 C 133.734375 713.34375 136.722656 689.878906 136.863281 688.96875 C 138.59375 687.195312 139.609375 685.566406 139.609375 683.398438 C 139.609375 681.996094 139.476562 681.277344 138.773438 678.855469 C 138.125 676.621094 137.957031 675.765625 138.027344 675.039062 C 138.132812 673.933594 138.730469 672.324219 139.234375 671.78125 C 139.429688 671.570312 139.726562 671.078125 139.886719 670.691406 C 140.089844 670.207031 140.335938 669.949219 140.660156 669.882812 L 141.589844 669.691406 C 142.328125 669.539062 144.042969 670.25 146.964844 671.914062 C 149.167969 672.769531 150.023438 673.972656 151.210938 675.871094 C 153.0625 678.101562 153.347656 680.894531 153.734375 683.171875 C 154.597656 688.292969 154.613281 688.828125 154.195312 697.878906 C 153.824219 705.972656 153.828125 707.578125 154.210938 707.960938 C 154.566406 708.316406 155.480469 708.355469 156.070312 708.039062 C 161.714844 702.773438 165.863281 698.605469 171.742188 692.835938 C 173.179688 692.792969 174.648438 692.84375 176.03125 693.117188 C 176.476562 693.273438 177.132812 693.402344 177.488281 693.402344 C 185.171875 691.765625 192.953125 689.476562 200.46875 689.285156 L 206.257812 689.15625 L 209.054688 690.078125 L 211.855469 691.003906 L 214.609375 694.167969 L 217.363281 697.328125 L 219.847656 707.804688 L 222.335938 718.277344 C 221.28125 722.757812 220.28125 727.128906 220.277344 731.730469 C 221.476562 736.636719 216.863281 734.992188 216.839844 737.832031 C 216.757812 745.441406 218.792969 750.894531 222.179688 756.875 C 222.808594 761.394531 221.320312 765.015625 219.703125 769.121094 L 215.476562 772.453125 C 213.148438 774.289062 207.828125 778.507812 203.648438 781.832031 C 197.8125 786.480469 195.289062 788.355469 192.742188 789.953125 L 189.425781 792.027344 C 178.730469 795.167969 168.386719 799.234375 159.078125 805.476562 C 158.300781 806.011719 157.558594 806.449219 157.425781 806.453125 C 157.160156 806.457031 155.816406 808.121094 155.816406 808.445312 C 155.816406 808.554688 155.988281 808.816406 156.199219 809.027344 L 156.582031 809.40625 L 78.597656 809.40625 C 11.234375 809.40625 0.625 809.371094 0.714844 809.136719 Z M 159.902344 807.796875 C 169.039062 801.199219 179.707031 797.683594 190.710938 794.011719 L 194.238281 791.804688 C 197.046875 790.050781 199.324219 788.359375 205.367188 783.550781 C 209.546875 780.222656 214.898438 775.976562 217.261719 774.113281 L 221.558594 770.722656 C 224.269531 765.894531 224.277344 761.179688 224.277344 755.828125 C 221.53125 752.007812 220.4375 748.378906 219.789062 743.789062 C 219.359375 740.75 219.027344 738.234375 219.050781 738.203125 C 221.8125 736.335938 222.367188 735.542969 222.371094 732.894531 C 222.023438 727.914062 223.820312 723.160156 224.46875 718.273438 C 224.46875 717.648438 220.511719 700.394531 219.496094 696.59375 C 219.363281 696.097656 218.484375 694.929688 216.625 692.785156 C 215.152344 691.082031 213.78125 689.546875 213.578125 689.371094 C 213.378906 689.199219 211.863281 688.605469 210.21875 688.058594 L 207.222656 687.058594 L 200.542969 687.179688 C 193.550781 685.09375 182.664062 692.410156 176.863281 690.960938 C 174.59375 690.671875 172.777344 690.738281 170.4375 690.738281 L 167.46875 693.640625 C 165.832031 695.238281 162.585938 698.429688 160.25 700.734375 L 156 704.929688 L 156.105469 702.929688 C 156.742188 696.074219 156.660156 687.1875 155.8125 682.105469 C 155.722656 679.101562 154.765625 677.070312 153.234375 674.628906 C 152.148438 672.128906 150.609375 671.292969 148.347656 670.015625 C 146.652344 669.054688 145.203125 668.25 145.125 668.21875 C 145.050781 668.191406 145.792969 664.78125 146.777344 660.644531 C 147.769531 656.480469 149.203125 649.714844 149.988281 645.5 L 151.40625 637.878906 L 154.386719 628.546875 C 156.027344 623.414062 157.480469 618.863281 157.621094 618.4375 L 157.871094 617.664062 L 154.035156 615.984375 C 151.921875 615.058594 149.730469 613.992188 149.15625 613.613281 C 148.222656 612.996094 148.085938 612.8125 147.769531 611.785156 C 147.082031 609.550781 146.902344 607.929688 147.046875 605.308594 C 147.167969 603.160156 147.289062 602.503906 147.96875 600.355469 C 148.890625 597.445312 149.453125 596.21875 150.542969 594.761719 C 151.628906 593.300781 151.785156 593.152344 152.769531 592.589844 C 153.332031 592.269531 154.085938 592.050781 154.964844 591.960938 L 156.582031 591.78125 C 158.828125 591.511719 159.476562 591.523438 161.066406 591.839844 L 162.78125 592.1875 L 162.839844 593.292969 L 162.898438 594.402344 L 162.363281 594.25 C 162.070312 594.167969 161.269531 594.078125 160.589844 594.050781 C 159.90625 594.027344 159.132812 593.949219 158.871094 593.882812 C 157.976562 593.65625 154.691406 593.769531 154.148438 594.042969 C 153.863281 594.183594 153.542969 594.273438 153.4375 594.242188 C 153.183594 594.15625 152.558594 594.640625 152.511719 594.957031 C 152.492188 595.097656 152.394531 595.335938 152.300781 595.492188 C 151.789062 596.308594 152.082031 597.332031 153.101562 598.292969 C 153.761719 598.914062 154.6875 600.105469 156.558594 602.746094 C 156.96875 603.324219 157.445312 603.914062 157.613281 604.054688 C 157.78125 604.191406 157.917969 604.414062 157.917969 604.542969 C 157.917969 604.667969 158.167969 604.964844 158.472656 605.199219 C 158.78125 605.433594 159.605469 606.304688 160.304688 607.132812 C 161.003906 607.964844 161.644531 608.601562 161.726562 608.550781 C 161.808594 608.5 161.933594 607.234375 162.007812 605.742188 C 162.082031 604.246094 162.191406 602.816406 162.25 602.566406 C 162.328125 602.25 162.292969 602.152344 162.140625 602.242188 C 161.871094 602.410156 161.835938 601.375 162.101562 601.109375 C 162.261719 600.949219 162.621094 599.300781 162.785156 597.976562 C 162.820312 597.710938 162.859375 597.5 162.875 597.5 C 162.890625 597.5 162.9375 597.332031 162.976562 597.128906 C 163.011719 596.925781 163.09375 596.5625 163.152344 596.320312 C 163.214844 596.078125 163.136719 595.582031 162.984375 595.214844 C 162.832031 594.847656 162.765625 594.546875 162.839844 594.550781 C 163.175781 594.558594 166.378906 595.183594 170.027344 595.953125 C 173.238281 596.628906 175.261719 597.210938 180.230469 598.882812 L 186.425781 600.972656 L 189.800781 603.183594 L 193.175781 605.390625 L 193.65625 606.910156 L 194.136719 608.433594 L 192.695312 611.898438 C 191.304688 615.238281 191.1875 615.449219 189.414062 617.640625 L 187.570312 619.917969 L 185.859375 620.671875 L 184.148438 621.421875 L 178.707031 621.207031 L 173.269531 620.992188 L 167.429688 619.398438 C 161.632812 617.8125 160.207031 617.328125 160.207031 616.941406 C 160.207031 616.828125 160.410156 615.90625 160.65625 614.890625 L 161.101562 613.042969 L 160.511719 612.492188 C 160.011719 612.023438 157.457031 609.851562 156.609375 609.175781 C 155.898438 608.605469 154.296875 607.59375 153.53125 607.230469 C 153.0625 607.003906 152.4375 606.664062 152.148438 606.46875 C 151.792969 606.230469 151.441406 606.15625 151.058594 606.230469 C 150.695312 606.304688 150.441406 606.257812 150.34375 606.097656 C 150.042969 605.59375 149.597656 605.617188 149.28125 606.152344 C 148.917969 606.769531 148.753906 607.636719 148.632812 609.621094 C 148.492188 612 149.101562 612.808594 152.253906 614.429688 C 154.554688 615.613281 158.230469 617.007812 159.117188 617.035156 C 159.523438 617.046875 159.523438 617.054688 159.15625 617.210938 C 158.949219 617.300781 158.605469 617.429688 158.394531 617.5 C 157.78125 617.707031 160.480469 618.621094 165.738281 619.988281 C 172.019531 621.625 175.71875 622.078125 181.261719 621.890625 C 184.941406 621.765625 185.097656 621.746094 186.410156 621.179688 C 187.640625 620.644531 187.96875 620.371094 190.097656 618.066406 L 192.4375 615.542969 L 193.601562 612.710938 C 194.242188 611.152344 194.839844 609.6875 194.929688 609.457031 C 195.089844 609.035156 195.15625 609.050781 201.496094 611.195312 C 205.019531 612.390625 207.941406 613.402344 207.988281 613.449219 C 208.035156 613.496094 207.9375 615.949219 207.773438 618.898438 L 207.476562 624.265625 L 209.613281 627.3125 C 210.789062 628.988281 211.84375 630.429688 211.960938 630.519531 C 212.074219 630.605469 218.761719 633.308594 226.816406 636.523438 L 241.464844 642.367188 L 244.773438 642.863281 C 247.503906 643.269531 248.390625 643.332031 249.863281 643.210938 L 251.640625 643.066406 L 254.269531 640.144531 L 256.898438 637.226562 L 257.894531 637.621094 C 258.441406 637.835938 262.515625 639.421875 266.949219 641.140625 L 275.015625 644.269531 L 282.398438 649.652344 L 289.78125 655.039062 L 290.757812 657.9375 C 291.296875 659.53125 291.785156 661.011719 291.839844 661.226562 L 291.941406 661.617188 L 292.671875 661.242188 C 294.203125 660.449219 294.148438 660.789062 293.394531 656.835938 L 292.726562 653.308594 L 290.585938 651.144531 C 288.730469 649.269531 286.523438 647.542969 274.023438 638.160156 L 259.597656 627.339844 L 259.464844 625.636719 L 259.328125 623.933594 L 257.390625 622.027344 L 255.457031 620.121094 L 248.378906 617.152344 C 241.8125 614.398438 240.8125 614.039062 234.496094 612.167969 C 225.363281 609.457031 221.808594 608.742188 216.074219 608.453125 L 211.824219 608.238281 L 210.453125 609.59375 L 209.082031 610.953125 L 204.335938 609.5 L 197.726562 607.480469 L 195.867188 606.910156 L 195.859375 606.207031 C 195.855469 605.605469 195.644531 605.253906 194.464844 603.878906 C 193.109375 602.304688 192.984375 602.210938 189.804688 600.496094 C 186.957031 598.957031 185.832031 598.480469 181.046875 596.808594 C 174.277344 594.441406 174.9375 594.632812 168.5 593.203125 C 165.566406 592.550781 163.132812 591.992188 163.097656 591.964844 C 163.0625 591.933594 163.332031 591.46875 163.695312 590.929688 C 164.347656 589.964844 164.355469 589.925781 164.257812 588.371094 C 164.144531 586.558594 164.296875 586.03125 167.558594 576.925781 C 168.535156 574.203125 169.640625 570.730469 170.015625 569.210938 C 170.851562 565.832031 170.953125 565.605469 172.292969 564.109375 C 172.882812 563.449219 173.363281 562.839844 173.363281 562.75 C 173.363281 562.664062 174.265625 561.804688 175.367188 560.839844 C 177.652344 558.84375 178.15625 558.179688 179.21875 555.785156 C 180.332031 553.273438 183.808594 547.804688 185.082031 546.558594 C 185.664062 545.992188 186.140625 545.421875 186.140625 545.296875 C 186.140625 544.738281 189.082031 542.324219 190.621094 541.617188 C 191.144531 541.375 191.898438 540.921875 192.296875 540.609375 C 193.132812 539.949219 195.867188 538.542969 196.3125 538.542969 C 196.480469 538.542969 197.375 538.160156 198.304688 537.6875 C 199.234375 537.214844 200.097656 536.832031 200.222656 536.832031 C 203.523438 534.621094 206.25 530.597656 210.242188 530.253906 C 214.507812 529.703125 217.742188 526.042969 221.269531 526.191406 C 224.613281 525.425781 228.195312 525.613281 231.238281 525.714844 C 233.125 525.777344 234.816406 525.902344 234.992188 525.996094 C 235.167969 526.089844 235.597656 526.164062 235.945312 526.164062 C 236.292969 526.164062 237.304688 526.34375 238.199219 526.558594 C 239.109375 526.78125 240.734375 526.988281 241.917969 527.035156 C 243.070312 527.078125 244.828125 527.21875 245.824219 527.34375 C 246.820312 527.464844 247.980469 527.558594 248.398438 527.550781 C 250.660156 527.503906 252.433594 527.371094 252.65625 527.230469 C 252.816406 527.132812 253.074219 527.230469 253.371094 527.507812 C 253.625 527.746094 253.878906 527.894531 253.9375 527.835938 C 254.078125 527.699219 255.46875 529.019531 255.40625 529.234375 C 255.378906 529.328125 255.445312 529.402344 255.550781 529.402344 C 255.65625 529.402344 255.742188 529.523438 255.742188 529.675781 C 255.742188 530.046875 257.3125 531.304688 257.777344 531.304688 C 264.226562 533.820312 270.101562 538.679688 276.117188 541.429688 C 276.46875 541.632812 276.917969 541.746094 277.113281 541.683594 C 278.71875 542.179688 279.621094 543.046875 281.214844 543.878906 C 281.34375 543.878906 281.839844 544.3125 282.320312 544.84375 C 282.796875 545.375 283.269531 545.761719 283.363281 545.703125 C 283.460938 545.644531 283.589844 545.789062 283.648438 546.027344 C 283.769531 546.503906 284.835938 547.675781 285.175781 547.707031 C 285.296875 547.714844 285.863281 548.269531 286.441406 548.9375 C 288.0625 550.8125 288.210938 550.953125 288.871094 551.238281 C 289.214844 551.382812 289.492188 551.589844 289.492188 551.691406 C 289.492188 551.796875 289.957031 552.179688 290.527344 552.546875 C 291.480469 553.378906 292.621094 553.871094 293.496094 554.59375 C 293.496094 554.734375 293.882812 555.21875 294.355469 555.667969 C 294.828125 556.117188 295.214844 556.628906 295.214844 556.804688 C 295.214844 557.265625 297.683594 559.617188 298.328125 559.769531 C 299.308594 559.996094 300.285156 561.238281 301.339844 563.59375 C 301.480469 563.90625 301.769531 564.347656 301.980469 564.570312 C 302.191406 564.792969 302.578125 565.285156 302.839844 565.664062 C 303.101562 566.042969 303.746094 566.601562 304.269531 566.90625 C 305.53125 567.640625 306.84375 568.898438 306.84375 569.371094 C 306.84375 569.582031 307.355469 570.296875 307.984375 570.960938 C 308.847656 571.875 309.113281 572.289062 309.089844 572.675781 C 309.070312 572.960938 309.199219 573.351562 309.378906 573.550781 C 309.558594 573.746094 309.703125 573.996094 309.703125 574.101562 C 309.703125 574.207031 309.867188 574.445312 310.066406 574.625 C 310.4375 574.957031 310.765625 575.777344 310.449219 575.582031 C 310.035156 575.324219 310.34375 575.925781 311.113281 576.871094 C 311.601562 577.46875 312.277344 578.042969 312.730469 578.25 C 313.15625 578.441406 313.460938 578.679688 313.398438 578.773438 C 313.296875 578.941406 313.46875 579.507812 314 580.734375 C 314.136719 581.050781 314.4375 581.863281 314.664062 582.546875 C 314.890625 583.226562 315.285156 584.199219 315.535156 584.703125 C 315.808594 585.246094 315.996094 585.960938 315.996094 586.4375 C 315.996094 587.058594 316.144531 587.441406 316.617188 588.070312 C 316.957031 588.519531 317.324219 589.027344 317.429688 589.195312 C 317.53125 589.359375 317.667969 589.542969 317.730469 589.59375 C 317.84375 589.6875 318.726562 591.492188 319.730469 593.6875 C 320.117188 594.53125 320.277344 595.234375 320.34375 596.355469 C 320.390625 597.195312 320.554688 598.117188 320.703125 598.410156 C 320.851562 598.699219 320.933594 599 320.890625 599.074219 C 320.847656 599.152344 320.902344 599.425781 321.011719 599.6875 C 321.273438 600.304688 321.347656 602.957031 321.109375 603.25 C 320.992188 603.394531 321.011719 603.628906 321.164062 603.914062 C 321.304688 604.175781 321.421875 605.273438 321.453125 606.574219 C 321.480469 607.792969 321.605469 609.164062 321.734375 609.621094 C 322.152344 611.105469 322.277344 614.058594 321.949219 614.664062 C 321.816406 614.914062 321.734375 616.054688 321.734375 617.617188 C 321.738281 620.101562 321.480469 622.492188 321.144531 623.125 C 321.050781 623.296875 321.023438 623.625 321.082031 623.851562 C 321.171875 624.195312 321.128906 624.246094 320.835938 624.140625 C 320.640625 624.066406 320.539062 624.078125 320.613281 624.160156 C 320.6875 624.242188 320.621094 624.558594 320.464844 624.863281 C 320.304688 625.167969 320.226562 625.492188 320.285156 625.585938 C 320.339844 625.679688 320.128906 626.464844 319.8125 627.332031 C 319.496094 628.199219 319.238281 629.09375 319.238281 629.324219 C 319.238281 629.554688 319.117188 630.160156 318.964844 630.667969 C 318.472656 632.324219 318.054688 634.234375 317.910156 635.5 C 317.832031 636.179688 317.582031 637.140625 317.359375 637.632812 C 317.136719 638.125 316.949219 638.601562 316.949219 638.691406 C 316.949219 638.78125 316.683594 639.109375 316.359375 639.417969 C 316.03125 639.722656 315.464844 640.621094 315.101562 641.40625 C 314.738281 642.191406 314.230469 643.230469 313.976562 643.714844 C 313.726562 644.203125 313.519531 644.773438 313.519531 644.984375 C 313.519531 645.195312 313.355469 645.699219 313.15625 646.101562 C 312.957031 646.503906 312.558594 647.324219 312.269531 647.925781 C 311.980469 648.527344 311.585938 649.164062 311.390625 649.335938 C 311.199219 649.511719 311.039062 649.71875 311.039062 649.796875 C 311.039062 649.875 310.738281 650.382812 310.371094 650.929688 C 310.003906 651.472656 309.703125 652.148438 309.703125 652.425781 C 309.703125 653.019531 308.914062 654.773438 308.277344 655.605469 C 308.03125 655.929688 307.730469 656.570312 307.605469 657.03125 C 307.480469 657.496094 307.222656 657.980469 307.03125 658.113281 C 306.839844 658.25 306.628906 658.613281 306.558594 658.929688 C 306.488281 659.242188 306.324219 659.5625 306.1875 659.640625 C 306.050781 659.722656 305.738281 660.164062 305.488281 660.621094 C 304.714844 662.042969 304.617188 662.183594 304.199219 662.476562 C 303.972656 662.632812 303.660156 663.015625 303.5 663.324219 C 303.21875 663.871094 303.234375 663.929688 304.125 665.457031 C 304.628906 666.320312 305.222656 667.496094 305.445312 668.070312 C 305.894531 669.234375 306.304688 671.179688 306.175781 671.550781 C 306.132812 671.679688 306.054688 672.160156 306.007812 672.617188 C 305.914062 673.484375 304.871094 675.8125 303.988281 677.121094 C 303.226562 678.246094 301.53125 681.523438 301.035156 682.835938 C 300.125 685.226562 299.605469 686.726562 298.820312 689.214844 C 298.371094 690.628906 297.988281 691.871094 297.96875 691.976562 C 297.878906 692.421875 297.273438 694.078125 297.136719 694.257812 C 297.054688 694.367188 296.6875 695.183594 296.320312 696.074219 C 295.949219 696.964844 295.441406 698.003906 295.191406 698.390625 C 294.941406 698.773438 294.4375 699.574219 294.070312 700.171875 C 293.375 701.300781 291.738281 703.140625 291.164062 703.4375 C 290.980469 703.53125 290.152344 704.261719 289.328125 705.0625 C 288.5 705.859375 287.179688 706.988281 286.386719 707.570312 C 285.597656 708.15625 284.679688 708.882812 284.34375 709.1875 C 284.007812 709.496094 282.992188 710.238281 282.085938 710.84375 L 279.945312 712.277344 C 278.046875 713.554688 273.464844 715.34375 270.804688 715.84375 C 269.503906 716.089844 269.109375 716.246094 268.800781 716.636719 C 268.59375 716.902344 267.972656 717.59375 267.425781 718.167969 C 266.875 718.746094 266.425781 719.304688 266.421875 719.40625 C 266.417969 719.691406 265.515625 720.484375 264.261719 721.316406 C 263.578125 721.769531 262.96875 722.363281 262.667969 722.871094 C 262.40625 723.324219 262.109375 723.703125 262.015625 723.71875 C 261.921875 723.730469 261.757812 723.75 261.652344 723.765625 C 261.546875 723.777344 261.484375 723.847656 261.507812 723.917969 C 261.535156 723.988281 261.191406 724.308594 260.746094 724.632812 C 260.28125 724.96875 259.9375 725.375 259.9375 725.582031 C 259.9375 725.78125 259.6875 726.15625 259.382812 726.410156 C 258.726562 726.960938 257.933594 728.402344 258.007812 728.90625 C 258.039062 729.105469 257.976562 729.207031 257.867188 729.136719 C 257.757812 729.074219 257.582031 729.171875 257.472656 729.355469 C 257.367188 729.542969 257.273438 729.613281 257.273438 729.515625 C 257.265625 729.253906 256.707031 730.027344 256.699219 730.308594 C 256.695312 730.4375 256.363281 731.253906 255.960938 732.117188 C 254.035156 736.253906 254.007812 736.398438 254.964844 737.339844 C 255.605469 737.972656 256.34375 739.214844 257.851562 742.183594 C 258.042969 742.558594 258.3125 742.964844 258.457031 743.082031 C 258.757812 743.332031 260.417969 743.8125 262.222656 744.171875 C 263.742188 744.472656 263.855469 744.507812 267.753906 745.941406 C 292.996094 760.304688 323.191406 762.238281 349.75 773.636719 C 350.957031 774.164062 352.398438 774.789062 352.957031 775.027344 C 353.519531 775.261719 354.070312 775.554688 354.1875 775.671875 C 354.304688 775.789062 354.535156 775.886719 354.699219 775.890625 C 355.257812 775.898438 361.910156 779.363281 364.402344 780.945312 C 365.382812 781.566406 366.363281 782.175781 366.582031 782.300781 C 368.0625 783.140625 372.636719 786.195312 373.871094 787.171875 C 373.976562 787.257812 374.707031 787.785156 375.492188 788.347656 C 376.277344 788.910156 377.105469 789.527344 377.324219 789.722656 C 377.546875 789.917969 377.855469 790.160156 378.011719 790.265625 C 379.449219 791.230469 379.90625 791.472656 380.734375 791.695312 C 382.039062 792.042969 383.664062 792.976562 384.386719 793.785156 L 385.867188 795.429688 C 386.347656 795.964844 386.742188 796.542969 386.742188 796.71875 C 386.742188 797.289062 387.496094 798.636719 388.222656 799.355469 C 388.613281 799.746094 389.515625 800.601562 390.222656 801.253906 C 390.929688 801.910156 391.511719 802.519531 391.511719 802.613281 C 391.511719 802.707031 391.753906 803.09375 392.054688 803.476562 C 393.050781 804.746094 394.621094 807.617188 394.5 807.949219 C 394.457031 808.070312 394.585938 808.449219 394.792969 808.789062 L 395.164062 809.410156 L 157.53125 809.410156 L 159.898438 807.796875 Z M 244.300781 642.074219 C 242.882812 641.742188 241.039062 641.246094 240.199219 640.972656 C 238.921875 640.558594 229.625 636.847656 215.21875 631.003906 L 212.167969 629.765625 L 209.996094 626.894531 L 207.828125 624.023438 L 209.265625 613.882812 L 210.128906 612.429688 C 210.605469 611.632812 211.089844 610.851562 211.203125 610.695312 C 211.351562 610.492188 212.253906 610.328125 214.460938 610.101562 C 217.195312 609.828125 217.6875 609.824219 219.226562 610.078125 C 220.167969 610.234375 222.570312 610.617188 224.5625 610.933594 C 227.976562 611.476562 228.582031 611.640625 235.050781 613.792969 C 240.046875 615.453125 243.632812 616.796875 248.210938 618.722656 L 254.5 621.367188 L 257.765625 625.046875 L 257.535156 626.988281 C 257.285156 629.136719 255.792969 634.664062 254.582031 637.925781 C 253.898438 639.765625 253.699219 640.101562 252.652344 641.160156 C 251.585938 642.234375 251.394531 642.347656 250.511719 642.4375 C 247.613281 642.726562 246.894531 642.683594 244.300781 642.074219 Z M 244.300781 642.074219 "/>
</g>
<g clip-path="url(#clip3)" clip-rule="nonzero">
<path style=" stroke:none;fill-rule:nonzero;fill:rgb(100%,100%,100%);fill-opacity:1;" d="M 378.714844 321.6875 C 378.714844 316.464844 382.949219 312.230469 388.171875 312.230469 L 539.507812 312.230469 C 544.734375 312.230469 548.964844 316.464844 548.964844 321.6875 L 548.964844 473.023438 C 548.964844 478.246094 544.734375 482.480469 539.507812 482.480469 L 388.171875 482.480469 C 382.949219 482.480469 378.714844 478.246094 378.714844 473.023438 Z M 378.714844 321.6875 "/>
</g>
<path style=" stroke:none;fill-rule:nonzero;fill:rgb(32.939148%,32.939148%,32.939148%);fill-opacity:1;" d="M 513.789062 468.292969 L 511.132812 468.292969 L 511.132812 461.199219 L 513.792969 461.199219 C 518.441406 461.199219 522.296875 457.71875 522.882812 453.222656 C 521.464844 453.792969 519.898438 454.105469 518.234375 454.105469 C 511.871094 454.105469 506.65625 449.054688 506.414062 442.75 L 506.402344 442.75 L 506.414062 442.28125 C 506.640625 435.941406 511.46875 430.796875 517.597656 430.472656 C 520.859375 430.324219 523.992188 431.453125 526.363281 433.703125 C 528.707031 435.925781 530.046875 439.050781 530.046875 442.28125 L 530.046875 452.039062 C 530.046875 461 522.757812 468.292969 513.789062 468.292969 Z M 513.5 442.503906 C 513.621094 445.007812 515.695312 447.007812 518.234375 447.007812 C 521.011719 447.007812 522.953125 445.0625 522.953125 442.277344 C 522.953125 440.96875 522.429688 439.746094 521.480469 438.847656 C 520.527344 437.945312 519.3125 437.492188 517.960938 437.558594 C 515.574219 437.679688 513.613281 439.878906 513.5 442.503906 Z M 525.765625 397.355469 C 528.144531 395.429688 530.046875 392.773438 530.046875 389.289062 C 530.046875 383.304688 524.742188 378.4375 518.226562 378.4375 C 511.707031 378.4375 506.402344 383.304688 506.402344 389.289062 C 506.402344 392.773438 508.308594 395.429688 510.6875 397.355469 C 508.308594 399.28125 506.402344 401.9375 506.402344 405.421875 C 506.402344 411.40625 511.707031 416.273438 518.226562 416.273438 C 524.742188 416.273438 530.046875 411.40625 530.046875 405.421875 C 530.046875 401.9375 528.144531 399.28125 525.765625 397.355469 Z M 518.226562 385.53125 C 520.789062 385.53125 522.953125 387.253906 522.953125 389.289062 C 522.953125 391.296875 519.980469 392.882812 518.226562 393.597656 C 516.480469 392.886719 513.496094 391.296875 513.496094 389.289062 C 513.496094 387.253906 515.664062 385.53125 518.226562 385.53125 Z M 518.226562 409.179688 C 515.664062 409.179688 513.496094 407.457031 513.496094 405.421875 C 513.496094 403.414062 516.472656 401.828125 518.226562 401.113281 C 519.972656 401.824219 522.953125 403.414062 522.953125 405.421875 C 522.953125 407.457031 520.789062 409.179688 518.226562 409.179688 Z M 466.195312 468.292969 C 463.148438 468.292969 460.285156 467.152344 458.066406 465.042969 C 455.726562 462.824219 454.382812 459.699219 454.382812 456.46875 L 454.382812 446.714844 C 454.382812 437.753906 461.675781 430.460938 470.640625 430.460938 L 473.296875 430.460938 L 473.296875 437.554688 L 470.636719 437.554688 C 465.988281 437.554688 462.132812 441.035156 461.550781 445.53125 C 462.964844 444.960938 464.53125 444.648438 466.195312 444.648438 C 472.5625 444.648438 477.773438 449.699219 478.019531 456 L 478.027344 456 L 478.019531 456.46875 C 477.792969 462.8125 472.960938 467.957031 466.832031 468.277344 C 466.621094 468.289062 466.410156 468.292969 466.195312 468.292969 Z M 461.476562 456.46875 C 461.476562 457.78125 462 459 462.953125 459.898438 C 463.902344 460.800781 465.132812 461.273438 466.46875 461.191406 C 468.859375 461.066406 470.816406 458.867188 470.933594 456.242188 C 470.816406 453.742188 468.738281 451.742188 466.199219 451.742188 C 463.417969 451.742188 461.476562 453.683594 461.476562 456.46875 Z M 473.296875 385.53125 L 473.296875 378.4375 L 453.628906 378.4375 L 451.167969 397.355469 L 461.476562 397.355469 C 464.082031 397.355469 466.203125 399.480469 466.203125 402.085938 L 466.203125 404.449219 C 466.203125 407.054688 464.082031 409.179688 461.476562 409.179688 C 458.871094 409.179688 456.746094 407.054688 456.746094 404.449219 L 449.652344 404.449219 C 449.652344 410.964844 454.957031 416.273438 461.476562 416.273438 C 467.992188 416.273438 473.296875 410.964844 473.296875 404.449219 L 473.296875 402.085938 C 473.296875 395.566406 467.992188 390.261719 461.476562 390.261719 C 460.679688 390.261719 459.9375 390.359375 459.214844 390.503906 L 459.863281 385.53125 Z M 421.277344 390.261719 C 421.277344 390.261719 421.277344 378.4375 409.453125 378.4375 C 397.632812 378.4375 397.632812 390.261719 397.632812 390.261719 L 404.726562 390.261719 C 404.726562 388.105469 405.542969 385.53125 409.453125 385.53125 C 410.707031 385.53125 414.03125 385.53125 414.183594 390.261719 C 414.183594 394.328125 408.679688 400.648438 404.976562 403.625 L 404.726562 403.824219 L 397.632812 409.96875 L 397.632812 416.273438 L 421.277344 416.273438 L 421.277344 409.179688 L 409.394531 409.179688 C 409.394531 409.179688 421.277344 399.71875 421.277344 390.261719 Z M 417.730469 449.375 C 417.730469 449.375 421.277344 447.011719 421.277344 442.28125 C 421.277344 435.765625 415.972656 430.460938 409.453125 430.460938 C 402.9375 430.460938 397.632812 435.765625 397.632812 442.28125 L 404.726562 442.28125 C 404.726562 439.675781 406.84375 437.554688 409.453125 437.554688 C 412.066406 437.554688 414.183594 439.675781 414.183594 442.28125 C 414.183594 447.011719 407.089844 447.011719 407.089844 447.011719 L 407.089844 451.742188 C 407.089844 451.742188 414.183594 451.742188 414.183594 456.46875 C 414.183594 459.074219 412.066406 461.199219 409.453125 461.199219 C 406.84375 461.199219 404.726562 459.074219 404.726562 456.46875 L 397.632812 456.46875 C 397.632812 462.988281 402.9375 468.292969 409.453125 468.292969 C 415.972656 468.292969 421.277344 462.988281 421.277344 456.46875 C 421.277344 451.742188 417.730469 449.375 417.730469 449.375 Z M 416.546875 364.25 L 409.453125 364.25 L 409.453125 336.070312 L 402.359375 338.539062 L 402.359375 332.035156 L 415.757812 326.417969 L 416.546875 326.417969 Z M 470.933594 350.0625 L 475.664062 350.0625 L 475.664062 357.15625 L 470.933594 357.15625 L 470.933594 364.25 L 463.839844 364.25 L 463.839844 357.15625 L 449.652344 357.15625 L 449.679688 350.867188 L 461.980469 326.5 L 461.980469 326.417969 L 470.933594 326.417969 Z M 456.746094 350.0625 L 463.839844 350.0625 L 463.839844 335.875 Z M 530.046875 333.511719 L 515.859375 364.25 L 507.730469 364.25 L 521.972656 333.511719 L 506.402344 333.511719 L 506.402344 326.417969 L 530.046875 326.417969 Z M 530.046875 333.511719 "/>
</g>
</svg>
